# xmcd CD database file
#
# Track frame offsets:
#	150
#	10845
#	20282
#	47796
#	52641
#	75405
#	88857
#	94953
#	120078
#	144407
#	161791
#	188605
#	198629
#	205746
#
# Disc length: 3156 seconds
#
# Revision: 0
# Processed by: cddbd v1.5.1PL0 Copyright (c) Steve Scherf et al.
# Submitted via: CDex 1.51
#
DISCID=a70c520e
DTITLE=Duo Stephan Oliva and François Raulin - Tistano
DYEAR=2000
DGENRE=Jazz
TTITLE0=Aprés April
TTITLE1=Down the Line
TTITLE2=Terres Lointaines
TTITLE3=East Ogan
TTITLE4=317 East 32 ND
TTITLE5=L T
TTITLE6=Disgressions
TTITLE7=Requiem
TTITLE8=Essoum
TTITLE9=You Don´t Know What Love Is
TTITLE10=Baby
TTITLE11=Victory
TTITLE12=Dreams
TTITLE13=Est Eban
EXTD=YEAR: 2000
EXTT0=
EXTT1=
EXTT2=
EXTT3=
EXTT4=
EXTT5=
EXTT6=
EXTT7=
EXTT8=
EXTT9=
EXTT10=
EXTT11=
EXTT12=
EXTT13=
PLAYORDER=
